<?xml version="1.0" encoding="UTF-8"?>
<svg width="64" height="64" viewBox="0 0 64 64" version="1.1" xmlns="http://www.w3.org/2000/svg">
    <g>
        <!-- Fundo circular -->
        <circle cx="32" cy="32" r="30" fill="#9370db"/>
        
        <!-- Ícone de usuário estilizado -->
        <path d="M32 18c-4.4 0-8 3.6-8 8s3.6 8 8 8 8-3.6 8-8-3.6-8-8-8zm0 12c-2.2 0-4-1.8-4-4s1.8-4 4-4 4 1.8 4 4-1.8 4-4 4z" 
              fill="#4b0082"/>
        <path d="M32 38c-6.7 0-12.8 2.4-16 6.2V48c0 1.1.9 2 2 2h28c1.1 0 2-.9 2-2v-3.8c-3.2-3.8-9.3-6.2-16-6.2z" 
              fill="#4b0082"/>
    </g>
</svg>